<?xml version="1.0" encoding="UTF-8" standalone="no"?>
<!-- Created with Inkscape (http://www.inkscape.org/) -->

<svg
   xmlns:dc="http://purl.org/dc/elements/1.1/"
   xmlns:cc="http://creativecommons.org/ns#"
   xmlns:rdf="http://www.w3.org/1999/02/22-rdf-syntax-ns#"
   xmlns:svg="http://www.w3.org/2000/svg"
   xmlns="http://www.w3.org/2000/svg"
   xmlns:sodipodi="http://sodipodi.sourceforge.net/DTD/sodipodi-0.dtd"
   xmlns:inkscape="http://www.inkscape.org/namespaces/inkscape"
   version="1.1"
   width="195.99168"
   height="273.11957"
   id="svg3841"
   inkscape:version="0.47pre4 r22446"
   sodipodi:docname="WikiProject_Scouting_fleur-de-lis_dark_blue.svg">
  <metadata
     id="metadata24">
    <rdf:RDF>
      <cc:Work
         rdf:about="">
        <dc:format>image/svg+xml</dc:format>
        <dc:type
           rdf:resource="http://purl.org/dc/dcmitype/StillImage" />
      </cc:Work>
    </rdf:RDF>
  </metadata>
  <sodipodi:namedview
     pagecolor="#ffffff"
     bordercolor="#666666"
     borderopacity="1"
     objecttolerance="10"
     gridtolerance="10"
     guidetolerance="10"
     inkscape:pageopacity="0"
     inkscape:pageshadow="2"
     inkscape:window-width="1280"
     inkscape:window-height="970"
     id="namedview22"
     showgrid="false"
     inkscape:zoom="3.2205241"
     inkscape:cx="13.426287"
     inkscape:cy="146.67574"
     inkscape:window-x="0"
     inkscape:window-y="0"
     inkscape:window-maximized="1"
     inkscape:current-layer="svg3841" />
  <defs
     id="defs3843">
    <inkscape:perspective
       sodipodi:type="inkscape:persp3d"
       inkscape:vp_x="0 : 146.56 : 1"
       inkscape:vp_y="0 : 1000 : 0"
       inkscape:vp_z="215.99001 : 146.56 : 1"
       inkscape:persp3d-origin="107.995 : 97.706665 : 1"
       id="perspective26" />
  </defs>
  <g
     transform="translate(-253.51223,-208.65932)"
     id="layer1">
    <path
       d="m 370.29206,400.8107 c 2.82007,14.90608 23.76794,30.21502 35.85233,6.04301 12.08601,41.89412 -26.98926,53.98013 -39.07526,29.80812 3.22293,21.35194 0,30.21501 -18.1274,45.11706 -8.86146,-8.86307 -20.94747,-26.98805 -14.90447,-45.11706 -24.1704,33.03508 -54.38219,-5.63611 -39.47773,-33.03106 15.30733,27.39495 33.43473,12.08601 33.43473,-2.82007 -3.22132,0 -9.26433,2.82007 -9.26433,-2.82006 l 0,-3.22294 c 0,-2.82007 3.22294,-6.043 6.04301,-6.043 l -8.86307,0 c -3.22294,0 -3.22294,0 -3.22294,-2.82007 l 0,-3.22293 c 0,-2.82007 0,-2.82007 3.22294,-2.82007 l 8.86307,0 c -2.82007,0 -2.82007,-3.22294 -2.82007,-6.03898 l 0,-2.82007 c 0,-3.22293 0,-3.22293 2.82007,-3.22293 l 6.04139,0 c -6.04139,-14.90608 -39.07486,-53.98013 -51.15926,-6.043 -63.24526,-50.7572 2.82007,-126.08928 45.11787,-53.98014 -12.08601,-17.72614 -12.08601,-39.07406 -2.82007,-56.8002 6.04139,-18.12901 18.1274,-33.03105 30.21179,-42.29699 23.76754,21.34791 45.11827,66.06614 26.99047,99.09719 36.2552,-68.8862 108.76479,-2.82006 45.11666,53.98014 -18.1274,-50.7572 -48.33959,-8.86308 -51.15966,6.043 l 6.043,0 c 2.82007,0 2.82007,0 2.82007,3.22293 l 0,2.82007 c 0,2.81604 0,6.03898 -2.82007,6.03898 l 6.0418,0 c 2.82006,0 6.043,0 6.043,2.82007 l 0,3.22293 c 0,2.82007 -3.22294,2.82007 -6.043,2.82007 l -6.0418,0 c 2.82007,0 2.82007,3.22293 2.82007,6.043 l 0,3.22294 c 0,5.64013 -6.043,2.82006 -11.68314,2.82006 z"
       id="path2880"
       style="fill:#1a2e5d;fill-opacity:1;stroke:none" />
    <g
       id="g3924"
       style="fill:#0b1728">
      <path
         d="m 350.78428,225.3676 c 0,0 -13.48347,15.3473 -15.93505,37.88867 -2.45153,22.54137 2.86017,44.12351 6.94604,61.38923 4.08591,17.26574 5.38271,43.64394 5.38271,43.64394 l 3.51034,-0.95923 0.0959,-141.96261 z"
         id="path3777"
         style="color:#000000;fill:#0b1728;stroke:none;stroke-width:3.33333325;marker:none;visibility:visible;display:inline;overflow:visible;enable-background:accumulate" />
      <path
         d="m 362.67841,367.33021 c 0,0 -5.27565,0.4796 -5.27565,0.4796 0,0 0.4796,-21.58217 5.27565,-38.84789 4.79603,-17.26572 11.03088,-43.16428 8.15325,-65.70565 -2.87762,-22.54137 -18.70452,-37.88867 -18.70452,-37.88867 l -2e-5,-15.34734 c 0,0 33.09264,28.29661 33.57224,65.70568 0.14583,11.37169 -1.25955,20.21728 -4.50817,29.65412 -2.59365,7.1583 -4.19518,11.97591 -6.04308,16.86744 -8.15327,21.58214 -12.4697,45.08271 -12.4697,45.08271 z"
         id="path3779"
         style="color:#000000;fill:#0b1728;stroke:none;stroke-width:0.5;marker:none;visibility:visible;display:inline;overflow:visible;enable-background:accumulate" />
      <path
         d="m 332.4634,366.37101 c 0,0 -6.23485,-45.56234 -35.97027,-41.24591 -29.73541,4.31645 -14.86769,35.01106 -14.86769,35.01106 0,0 1.4388,-23.02096 16.30649,-21.10254 14.86772,1.9184 33.57224,27.33739 34.53147,27.33739 z"
         id="path3787"
         style="color:#000000;fill:#0b1728;fill-opacity:1;stroke:none;stroke-width:0.5;marker:none;visibility:visible;display:inline;overflow:visible;enable-background:accumulate" />
      <path
         d="m 371.91078,369.24866 c 0,0 6.23485,-45.56236 35.97024,-41.24591 29.73544,4.31642 14.86772,35.01106 14.86772,35.01106 0,0 -1.4388,-23.02099 -16.30652,-21.10254 -14.86772,1.91837 -33.57221,27.33739 -34.53144,27.33739 z"
         id="path3789"
         style="color:#000000;fill:#0b1728;fill-opacity:1;stroke:none;stroke-width:0.5;marker:none;visibility:visible;display:inline;overflow:visible;enable-background:accumulate" />
      <path
         d="m 351.60777,406.61682 -2.18878,70.87839 c 0,0 10.94393,-5.76527 13.67988,-26.45224 2.73598,-20.68698 -4.92478,-44.76528 -4.92478,-44.76528 l -6.56632,0.33913 z"
         id="path3791"
         style="color:#000000;fill:#0b1728;fill-opacity:1;stroke:none;stroke-width:0.5;marker:none;visibility:visible;display:inline;overflow:visible;enable-background:accumulate" />
      <path
         d="m 378.24511,377.7907 -52.22616,0.33914 0.67827,2.03477 50.19136,0.33913 1.35653,-2.71304 z"
         id="path3793"
         style="color:#000000;fill:#0b1728;fill-opacity:1;stroke:none;stroke-width:0.5;marker:none;visibility:visible;display:inline;overflow:visible;enable-background:accumulate" />
      <path
         d="m 377.906,388.03107 -52.22618,0.55109 0.67826,3.30652 50.19139,0.55112 1.35653,-4.40873 z"
         id="path3795"
         style="color:#000000;fill:#0b1728;fill-opacity:1;stroke:none;stroke-width:0.5;marker:none;visibility:visible;display:inline;overflow:visible;enable-background:accumulate" />
      <path
         d="m 333.81896,341.84284 c 0,0 -17.29566,-39.00004 -41.7131,-42.39135 -24.41741,-3.3913 -24.41741,24.75655 -24.41741,24.75655 0,0 6.54084,-22.36765 22.72177,-20.34787 19.46376,2.42959 44.24931,38.56355 43.40874,37.98267 z"
         id="path3797"
         style="color:#000000;fill:#0b1728;fill-opacity:1;stroke:none;stroke-width:0.5;marker:none;visibility:visible;display:inline;overflow:visible;enable-background:accumulate" />
      <path
         d="m 371.07096,341.84284 c 0,0 17.29564,-39.00001 41.71308,-42.39135 24.41744,-3.3913 24.41744,24.75658 24.41744,24.75658 0,0 -6.54086,-22.36766 -22.72177,-20.3479 -19.46384,2.42959 -44.24934,38.56355 -43.40875,37.98267 z"
         id="path3799"
         style="color:#000000;fill:#0b1728;fill-opacity:1;stroke:none;stroke-width:0.5;marker:none;visibility:visible;display:inline;overflow:visible;enable-background:accumulate" />
      <path
         d="m 327.66735,315.53305 c 0,0 -15.19345,-36.70719 -38.84786,-37.40909 -38.75671,-1.17384 -34.53144,39.80709 -34.53144,39.80709 0,0 5.27562,-30.69461 28.29659,-33.09264 27.36766,1.78919 35.17103,18.86432 45.08271,30.69464 z"
         id="path3801"
         style="color:#000000;fill:#0b1728;fill-opacity:1;stroke:none;stroke-width:0.5;marker:none;visibility:visible;display:inline;overflow:visible;enable-background:accumulate" />
      <path
         d="m 375.01272,315.53305 c 0,0 15.19345,-36.70719 38.84786,-37.40909 38.75671,-1.17384 34.53144,39.80712 34.53144,39.80712 0,0 -5.27562,-30.69464 -28.29659,-33.09267 -27.36763,1.78919 -35.171,18.86432 -45.08271,30.69464 z"
         id="path3803"
         style="color:#000000;fill:#0b1728;fill-opacity:1;stroke:none;stroke-width:0.5;marker:none;visibility:visible;display:inline;overflow:visible;enable-background:accumulate" />
      <path
         d="m 369.19771,401.64483 c 0,0 2.15558,28.58104 23.75779,25.74486 21.60228,-2.83619 12.83593,-19.61334 12.83593,-19.61334 0,0 -5.79309,12.07411 -16.5942,10.8136 -10.80115,-1.26055 -13.87656,-8.12768 -19.99952,-16.94512 z"
         id="path3805"
         style="color:#000000;fill:#0b1728;fill-opacity:1;stroke:none;stroke-width:0.5;marker:none;visibility:visible;display:inline;overflow:visible;enable-background:accumulate" />
      <path
         d="m 327.87512,401.97281 c 0,0 3.48867,28.29265 -18.20631,24.63999 -20.25236,-3.40984 -14.85386,-22.67236 -14.85386,-22.67236 0,0 4.49374,12.60402 14.67016,13.54734 10.83875,1.00467 16.01906,-3.52208 18.39001,-15.51497 z"
         id="path3807"
         style="color:#000000;fill:#0b1728;fill-opacity:1;stroke:none;stroke-width:0.5;marker:none;visibility:visible;display:inline;overflow:visible;enable-background:accumulate" />
      <path
         d="m 340.3768,404.49952 c -2.7425,19.597 -5.91585,37.40127 -25.49602,39.80706 -13.47998,1.65626 -20.54594,-12.70949 -20.54594,-12.70949 0,0 9.46638,11.14682 19.17853,10.31146 15.46698,-1.33035 23.05779,-15.18365 26.86343,-37.40903 z"
         id="path3809"
         style="color:#000000;fill:#0b1728;fill-opacity:1;stroke:none;stroke-width:3.33333349;marker:none;visibility:visible;display:inline;overflow:visible;enable-background:accumulate" />
      <path
         d="m 365.87981,425.42042 c 0,0 4.00036,17.16704 18.11907,18.01481 14.11871,0.84779 21.41337,-11.23279 21.41337,-11.23279 0,0 -10.13549,9.18827 -20.23684,8.26567 -13.63688,-1.24555 -19.2956,-14.41189 -19.2956,-15.04769 z"
         id="path3811"
         style="color:#000000;fill:#0b1728;fill-opacity:1;stroke:none;stroke-width:3.33333349;marker:none;visibility:visible;display:inline;overflow:visible;enable-background:accumulate" />
    </g>
  </g>
</svg>
